<svg width="32" height="28" viewBox="0 0 32 28" fill="none" xmlns="http://www.w3.org/2000/svg">
<g filter="url(#filter0_d)">
<path d="M10.285 1.00701C10.714 0.563011 11.428 0.563011 11.872 1.00701C12.301 1.43601 12.301 2.15001 11.872 2.57801L3.82499 10.625H30.379C30.998 10.626 31.49 11.118 31.49 11.737C31.49 12.356 30.998 12.864 30.379 12.864H3.82499L11.872 20.896C12.301 21.34 12.301 22.055 11.872 22.483C11.428 22.927 10.713 22.927 10.285 22.483L0.332991 12.531C-0.11101 12.102 -0.11101 11.388 0.332991 10.96L10.285 1.00701Z" fill="white"/>
</g>
<defs>
<filter id="filter0_d" x="-4" y="0.674011" width="39.49" height="30.142" filterUnits="userSpaceOnUse" color-interpolation-filters="sRGB">
<feFlood flood-opacity="0" result="BackgroundImageFix"/>
<feColorMatrix in="SourceAlpha" type="matrix" values="0 0 0 0 0 0 0 0 0 0 0 0 0 0 0 0 0 0 127 0"/>
<feOffset dy="4"/>
<feGaussianBlur stdDeviation="2"/>
<feColorMatrix type="matrix" values="0 0 0 0 0 0 0 0 0 0 0 0 0 0 0 0 0 0 0.25 0"/>
<feBlend mode="normal" in2="BackgroundImageFix" result="effect1_dropShadow"/>
<feBlend mode="normal" in="SourceGraphic" in2="effect1_dropShadow" result="shape"/>
</filter>
</defs>
</svg>
